<svg xmlns="http://www.w3.org/2000/svg" viewBox="0 8 64 49" x="0px" y="0px"><g><path d="M18.837,17.627l-5.921-.966-3.948-.645a6.044,6.044,0,0,0-.654-.069c-.063,0-.126,0-.189,0-.159,0-.317,0-.474.006-.062,0-.124.01-.186.016-.167.014-.333.036-.5.064l-.129.024a5.733,5.733,0,0,0-.607.153h0a5.994,5.994,0,0,0-1.735.859c-.123.089-.221.2-.336.3s-.206.166-.3.259c0,.005-.007.013-.012.018a5.951,5.951,0,0,0-.716,7.8c.063.088.145.157.212.242q.183.229.386.439c.1.1.2.209.308.3a5.872,5.872,0,0,0,.666.51c.084.055.166.11.252.161a5.96,5.96,0,0,0,.86.422c.065.025.132.046.2.069a6.026,6.026,0,0,0,1.022.271l.987.161,5.921.967a1,1,0,0,0,.843-1.719l-4.179-3.892,1.182.193.986.161a5.978,5.978,0,0,0,5.605-2.125l.8.131a4.13,4.13,0,0,0,.654.053,4,4,0,0,0,.635-7.948l-5.1-.834a5.791,5.791,0,0,1-3.792-2.349,1,1,0,1,0-1.624,1.168,7.782,7.782,0,0,0,5.094,3.155l5.1.833a2,2,0,1,1-.645,3.948l-.089-.014a5.984,5.984,0,0,0,.251-.973A1,1,0,0,0,18.837,17.627Zm-14.7,5.324a3.929,3.929,0,0,1,.523-3.2L7.07,21.785Zm3.321,2.3-.1.63a4.05,4.05,0,0,1-.694-.184c-.09-.032-.174-.074-.26-.112-.124-.054-.246-.112-.364-.178s-.215-.131-.319-.2c-.075-.053-.147-.11-.218-.168a3.966,3.966,0,0,1-.349-.312l-.017-.02,2.581-1.026Zm3.546,1.226L9.33,26.208l.183-1.117Zm.36-6.527-.242,1.48-1.7-.278L6.162,18.4a3.922,3.922,0,0,1,2.484-.408l2.96.483Zm1.732,1.8.241-1.48L13.58,18.8l3.823.624A4,4,0,0,1,13.1,21.756Z"/><path d="M27.053,35.866a3,3,0,0,0,2.941,2.442,3.021,3.021,0,0,0,.566-.054,2.984,2.984,0,0,0,1.92-1.259l1.126-1.653.826.563a1,1,0,0,0,.563.173,1.075,1.075,0,0,0,.187-.017,1,1,0,0,0,.64-.42l.562-.827a5,5,0,1,0-8.266-5.627l-.562.826a1,1,0,0,0,.263,1.389l.827.563-1.125,1.654A2.976,2.976,0,0,0,27.053,35.866Zm6.886-6.345a3,3,0,0,1,.792,4.167l-4.96-3.376A3,3,0,0,1,33.939,29.521Zm-4.765,5.223L30.3,33.091l1.653,1.125L30.827,35.87a1,1,0,0,1-1.39.263,1,1,0,0,1-.263-1.389Z"/><path d="M40.871,13.348a3.359,3.359,0,0,0-1.6-1.032,3.98,3.98,0,0,0-7.229-1.553,3.333,3.333,0,0,0-1.882.283,3.544,3.544,0,0,0-2.058,2.34,3.5,3.5,0,0,0,2.663,4.256,3.6,3.6,0,0,0,.4.062,11.39,11.39,0,0,1-.92,1.963,1.831,1.831,0,0,0,1.192,2.722l3.611.776a1.831,1.831,0,0,0,2.205-1.991,11.3,11.3,0,0,1-.032-2.168,3.581,3.581,0,0,0,.388.107,3.5,3.5,0,0,0,4.178-2.786,3.545,3.545,0,0,0-.915-2.978Zm-1.052,2.615a1.5,1.5,0,0,1-1.791,1.2,1.455,1.455,0,0,1-.807-.485,1,1,0,0,0-1.739.438,13.349,13.349,0,0,0-.242,4.05l-3.157-.679a13.333,13.333,0,0,0,1.443-3.791,1,1,0,0,0-1.4-1.114,1.465,1.465,0,0,1-.937.11,1.5,1.5,0,0,1-1.141-1.826,1.562,1.562,0,0,1,.919-.983,1.262,1.262,0,0,1,1.164-.017,1,1,0,0,0,1.354-.559,1.986,1.986,0,0,1,3.845.826,1,1,0,0,0,1,1.066h.007a1.273,1.273,0,0,1,1.055.494A1.563,1.563,0,0,1,39.819,15.963Z"/><path d="M16.5,33.8l-5.363-2.689a1,1,0,0,0-1.343.446L7.106,36.915a1,1,0,0,0,.446,1.342l5.363,2.69a1,1,0,0,0,1.342-.446l2.69-5.363A1,1,0,0,0,16.5,33.8ZM12.917,38.71,9.342,36.917l1.793-3.575,3.575,1.793Z"/><path d="M25,30a4,4,0,1,0-4,4A4,4,0,0,0,25,30Zm-4,2a2,2,0,1,1,2-2A2,2,0,0,1,21,32Z"/><path d="M4.97,36.243a1,1,0,1,0-1.94-.486l-.126.5a6.13,6.13,0,0,0,2.541,6.573,1,1,0,1,0,1.11-1.664,4.124,4.124,0,0,1-1.71-4.423Z"/><path d="M43.293,19.707a1,1,0,0,0,1.414,0A5.544,5.544,0,0,0,46.054,14l-.105-.317a1,1,0,1,0-1.9.632l.106.317a3.558,3.558,0,0,1-.864,3.66A1,1,0,0,0,43.293,19.707Z"/><path d="M21.034,10.012,20.7,10a1,1,0,0,0-.071,2l.333.011A3.557,3.557,0,0,1,24.09,14.1a1,1,0,0,0,.91.585.984.984,0,0,0,.415-.091,1,1,0,0,0,.5-1.324A5.549,5.549,0,0,0,21.034,10.012Z"/><path d="M40.035,33.978a1,1,0,0,0,1.342-.446,5.548,5.548,0,0,0-.523-5.841l-.2-.267a1,1,0,0,0-1.6,1.2l.2.267a3.558,3.558,0,0,1,.336,3.745A1,1,0,0,0,40.035,33.978Z"/><path d="M20,37v1a1,1,0,0,0,2,0V37a1,1,0,0,0-2,0Z"/><path d="M22.343,42.176a1,1,0,0,0-2,0V44.3l-8,1.035V43.176a1,1,0,1,0-2,0V45.6l-7.4.957a1,1,0,0,0-.863,1.12l.513,3.967A5,5,0,0,0,7.539,56a5.121,5.121,0,0,0,.652-.042l27.768-3.592A5,5,0,0,0,40.115,48.8l2.4-.309v0a1,1,0,0,0,.991.871,1.117,1.117,0,0,0,.129-.008l14.876-1.925A4,4,0,1,0,57.486,39.5L42.61,41.422a1,1,0,0,0-.863,1.12v0l-1.984.255v0a1,1,0,0,0-.382-.663.989.989,0,0,0-.738-.2L31,42.924V41a1,1,0,0,0-2,0v2a.968.968,0,0,0,.036.178l-6.693.866Zm35.4-.7a2,2,0,1,1,.513,3.967l-13.884,1.8h0l-.51-3.947v-.011l0-.006ZM42,44.529l.256,1.977-1.984.256-.255-1.978Zm-4.1-.482h0v0l.384,2.972a2.964,2.964,0,0,1,.017.6c0,.011,0,.023-.005.035a2.992,2.992,0,0,1-2.6,2.723L7.934,53.975a3,3,0,0,1-3.36-2.591l-.385-2.975Z"/></g></svg>